<svg xmlns="http://www.w3.org/2000/svg" viewBox="0 0 50 50">
  <path fill="currentColor" d="M25 2C12.32 2 2 12.32 2 25s10.32 23 23 23 23-10.32 23-23S37.68 2 25 2zm11.24 18.52.01.72C36.25 28.56 30.68 37 20.5 37c-3.13 0-6.04-.92-8.49-2.49a11.1 11.1 0 0 0 8.2-2.3 5.55 5.55 0 0 1-5.17-3.84 5.52 5.52 0 0 0 2.5-.1 5.54 5.54 0 0 1-4.44-5.43v-.07c.74.42 1.6.67 2.5.7a5.54 5.54 0 0 1-1.71-7.4 15.74 15.74 0 0 0 11.42 5.79 5.53 5.53 0 0 1 9.43-5.05 11.1 11.1 0 0 0 3.52-1.35 5.56 5.56 0 0 1-2.43 3.07c1.12-.14 2.18-.43 3.18-.88a11.26 11.26 0 0 1-2.76 2.87z"/>
</svg>