<svg xmlns="http://www.w3.org/2000/svg" viewBox="0 0 50 50">
  <path fill="currentColor" d="M17.8 46.84A2 2 0 0 0 19 45v-5.4c0-.2.02-.4.04-.61L19 39h-3.6c-1.5 0-2.8-.6-3.4-1.8-.7-1.3-1-3.5-2.8-4.7-.3-.2-.1-.5.5-.5.6.1 1.9.9 2.7 2 .9 1.1 1.8 2 3.4 2 2.49 0 3.82-.13 4.62-.56C21.36 34.06 22.65 33 24 33v-.03c-5.67-.18-9.29-2.06-10.97-4.97-3.67.04-6.86.4-8.68.7a15.4 15.4 0 0 1-.15-.98c1.8-.3 4.84-.65 8.34-.71-.11-.28-.2-.56-.29-.85a64.62 64.62 0 0 0-8.19.1l-.05-1c1.65-.14 4.6-.27 8.02-.12a8.61 8.61 0 0 1 1.57-6.54c-.5-1.7-1.2-5.3.2-6.6 2.7 0 4.6 1.3 5.5 2.1C21 13.4 22.9 13 25 13s4 .4 5.6 1.1c.9-.8 2.8-2.1 5.5-2.1 1.5 1.4.7 5 .2 6.6 1.1 1.5 1.7 3.2 1.6 5 0 .48-.04.95-.11 1.4 3.5-.16 6.53-.02 8.2.11 0 .34-.03.67-.05 1a64.79 64.79 0 0 0-8.36-.09c-.08.34-.2.66-.32.98 3.55.05 6.66.39 8.55.69l-.15.99c-1.92-.3-5.17-.67-8.88-.69-1.67 2.88-5.22 4.76-10.78 4.98V33c2.6 0 5 3.9 5 6.6V45a2 2 0 0 0 1.2 1.84A23.04 23.04 0 0 0 48 25C48 12.32 37.68 2 25 2S2 12.32 2 25c0 10.16 6.63 18.8 15.8 21.84z"/>
</svg>